<svg id="Capa_1" enable-background="new 0 0 511.872 511.872" height="512" viewBox="0 0 511.872 511.872" width="512" xmlns="http://www.w3.org/2000/svg"><g><g><circle cx="401.065" cy="251.134" fill="#ffbe9c" r="36.081"/></g><g><circle cx="110.807" cy="251.134" fill="#f2a888" r="36.081"/></g><g><path d="m374.669 480.579c-5.32-26.7-19.431-50.222-39.177-67.451h-20.517l-14.877-21.512c-1.275-.5-2.558-.98-3.854-1.438l-80.689.021c-1.334.472-2.655.97-3.967 1.487l-14.828 21.442h-20.391c-19.746 17.229-33.857 40.751-39.177 67.451-2.456 12.324 7.076 23.793 19.643 23.793h19.544l79.547-19.883 79.566 19.883h19.534c12.567 0 22.099-11.469 19.643-23.793z" fill="#fd7a6e"/></g><g><path d="m215.556 390.199c-1.334.472-2.655.97-3.967 1.487l-14.828 21.442h-20.391c-19.746 17.229-33.857 40.751-39.177 67.451-2.456 12.324 7.076 23.793 19.643 23.793h20.252l34.331-8.658c-2.928-4.23-4.253-9.594-3.148-15.135 8.389-42.1 38.612-76.322 78.363-90.38l9.663-.003c-.017-.006-.034-.013-.051-.019z" fill="#fb695b"/></g><g><circle cx="255.929" cy="389.121" fill="#f2a888" r="36.084"/></g><g><path d="m335.493 504.372v-91.244c-10.39-9.066-22.336-16.394-35.394-21.512v41.387c0 22.092-17.908 40-40 40h-9c-22.091 0-40-17.908-40-40v-41.116c-12.794 5.104-24.509 12.326-34.719 21.233v91.252z" fill="#7888af"/></g><g><path d="m243.267 472.1c-18.341-3.642-32.168-19.817-32.168-39.229v-40.985c-12.794 5.104-24.509 12.326-34.719 21.233v91.252h63.768c-2.933-3.869-4.714-8.937-4.714-14.487 0-7.312 3.087-13.787 7.833-17.784z" fill="#687daa"/></g><g><circle cx="255.935" cy="251" fill="#ffd3bc" r="145"/></g><g><path d="m160.935 251c0-71.555 51.833-130.998 120-142.846-8.122-1.412-16.474-2.154-25-2.154-80.081 0-145 64.919-145 145s64.919 145 145 145c8.526 0 16.878-.743 25-2.154-68.167-11.848-120-71.291-120-142.846z" fill="#ffbe9c"/></g><g><g><path d="m205.734 289.994c0 12.91-13.143 23.377-29.354 23.377-16.213 0-29.355-10.467-29.355-23.377s13.142-23.377 29.355-23.377c16.211 0 29.354 10.467 29.354 23.377" fill="#ffa1ac"/></g><g><path d="m306.138 289.994c0 12.91 13.143 23.377 29.353 23.377 16.214 0 29.355-10.467 29.355-23.377s-13.142-23.377-29.355-23.377c-16.21 0-29.353 10.467-29.353 23.377" fill="#ffa1ac"/></g><g><path d="m193.488 274.991c-4.142 0-7.5-3.358-7.5-7.5v-12c0-4.142 3.358-7.5 7.5-7.5s7.5 3.358 7.5 7.5v12c0 4.142-3.358 7.5-7.5 7.5z"/></g><g><path d="m318.385 274.991c-4.142 0-7.5-3.358-7.5-7.5v-12c0-4.142 3.358-7.5 7.5-7.5s7.5 3.358 7.5 7.5v12c0 4.142-3.358 7.5-7.5 7.5z"/></g><g><path d="m255.936 282.134c-8.479 0-16.54-3.671-22.118-10.073-2.721-3.123-2.396-7.86.727-10.582 3.123-2.721 7.86-2.396 10.582.727 2.729 3.131 6.668 4.927 10.81 4.927 4.141 0 8.081-1.796 10.81-4.927 2.721-3.123 7.458-3.448 10.582-.727 3.123 2.721 3.448 7.458.727 10.582-5.58 6.401-13.642 10.073-22.12 10.073z"/></g></g><g><path d="m306.29 9.402-37.565 11.372c-8.341 2.525-17.243 2.525-25.585 0l-37.564-11.372c-20.403-6.177-42.305 3.107-52.055 22.064l-72.761 141.477h350.346l-72.761-141.476c-9.749-18.957-31.652-28.241-52.055-22.065z" fill="#df8a57"/></g><g><path d="m169.577 151.303s36.802-128.633 86.351-128.634c-4.309 0-8.619-.632-12.788-1.894l-37.564-11.373c-20.403-6.177-42.305 3.107-52.055 22.064l-72.761 141.477h88.817z" fill="#d97c41"/></g><g><path d="m464.667 184.047c0 18.157-16.058 32.875-35.872 32.875h-345.718c-19.812 0-35.872-14.718-35.872-32.875 0-18.155 16.06-32.875 35.872-32.875h345.717c19.815 0 35.873 14.719 35.873 32.875z" fill="#e4996d"/></g><g><path d="m133.705 184.047c0-18.155 16.06-32.875 35.872-32.875h-86.5c-19.812 0-35.872 14.72-35.872 32.875 0 18.157 16.06 32.875 35.872 32.875h86.5c-19.812 0-35.872-14.719-35.872-32.875z" fill="#df8a57"/></g><path d="m472.167 184.047c0-22.263-19.457-40.375-43.372-40.375h-4.31l-30.625-59.548c-1.895-3.683-6.416-5.135-10.1-3.239-3.684 1.894-5.134 6.416-3.239 10.1l27.097 52.687h-303.37l55.942-108.775c8.096-15.742 26.27-23.443 43.212-18.316l37.564 11.372c9.791 2.964 20.141 2.964 29.932 0l37.564-11.372c16.943-5.127 35.116 2.574 43.212 18.316l15.113 29.386c1.895 3.683 6.417 5.135 10.1 3.239 3.684-1.894 5.134-6.416 3.239-10.1l-15.113-29.386c-11.41-22.186-37.022-33.04-60.897-25.812l-37.565 11.372c-6.947 2.104-14.291 2.104-21.239 0l-37.564-11.372c-23.874-7.228-49.488 3.627-60.897 25.812l-59.471 115.636h-4.303c-23.916 0-43.372 18.112-43.372 40.375 0 20.254 16.106 37.068 37.021 39.938-6.005 7.546-9.5 17.048-9.5 27.149 0 23.711 19.037 43.046 42.628 43.557 5.707 19.075 15.109 37.001 27.798 52.573 1.483 1.82 3.642 2.763 5.819 2.763 1.665 0 3.341-.552 4.733-1.686 3.211-2.617 3.693-7.341 1.077-10.552-19.891-24.413-30.846-55.235-30.846-86.789 0-8.951.875-17.865 2.58-26.579h269.843c1.704 8.712 2.577 17.629 2.577 26.579 0 75.818-61.682 137.5-137.5 137.5-31.487 0-62.259-10.914-86.647-30.73-3.213-2.612-7.938-2.124-10.55 1.091-2.612 3.214-2.124 7.938 1.091 10.55 10.843 8.81 22.824 16.03 35.536 21.524-33.833 18.034-57.956 50.186-65.526 88.178-1.604 8.047.471 16.312 5.691 22.676 5.257 6.408 13.023 10.083 21.307 10.083h198.19c8.284 0 16.05-3.675 21.307-10.083 5.221-6.364 7.295-14.628 5.691-22.675-7.582-38.049-31.681-70.148-65.518-88.173 40.93-17.785 72.587-53.013 85.54-96.251 23.578-.526 42.599-19.855 42.599-43.556 0-10.05-3.514-19.574-9.537-27.145 20.933-2.855 37.058-19.676 37.058-39.942zm-144.174 312.825h-144.113v-80.343c6.054-4.955 12.65-9.315 19.719-12.979v29.452c0 26.191 21.309 47.5 47.5 47.5h9c26.191 0 47.5-21.309 47.5-47.5v-29.797c7.325 3.733 14.15 8.205 20.394 13.312zm-35.394-84.051v20.182c0 17.92-14.58 32.5-32.5 32.5h-9c-17.92 0-32.5-14.58-32.5-32.5v-21.216c7.687 12.704 21.573 20.918 37.329 20.918 15.293 0 28.857-7.776 36.671-19.884zm-10.731-11.536c-4.607 9.847-14.543 16.42-25.94 16.42-11.429 0-21.359-6.579-25.954-16.443 8.538 1.48 17.225 2.238 25.96 2.238 8.84 0 17.503-.765 25.934-2.215zm-134.742 90.99c-2.36-2.877-3.3-6.605-2.577-10.23 3.786-18.999 12.267-36.339 24.331-50.706v65.533h-12.043c-3.775 0-7.315-1.676-9.711-4.597zm220.188-10.23c.723 3.625-.217 7.353-2.577 10.23-2.396 2.921-5.936 4.597-9.71 4.597h-12.034v-65.551c12.057 14.359 20.53 31.698 24.321 50.724zm-261.207-202.723c-13.53-2.249-23.881-14.029-23.881-28.188 0-11.896 7.385-22.515 18.446-26.712h5.075c-1.535 8.741-2.313 17.646-2.313 26.579 0 9.543.911 19.025 2.673 28.321zm299.681-.005c1.731-9.179 2.647-18.643 2.647-28.317 0-8.932-.78-17.838-2.315-26.579h5.117c11.018 4.2 18.409 14.902 18.409 26.712 0 14.151-10.339 25.926-23.858 28.184zm23.007-69.895h-345.718c-15.645 0-28.372-11.383-28.372-25.375s12.728-25.375 28.372-25.375h345.718c15.645 0 28.372 11.383 28.372 25.375s-12.728 25.375-28.372 25.375z"/></g></svg>